<?xml version="1.0" encoding="UTF-8" standalone="no"?>
<!DOCTYPE svg PUBLIC "-//W3C//DTD SVG 1.1//EN" "http://www.w3.org/Graphics/SVG/1.1/DTD/svg11.dtd">
<svg width="100%" height="100%" viewBox="0 0 1000 1000" version="1.1" xmlns="http://www.w3.org/2000/svg" xmlns:xlink="http://www.w3.org/1999/xlink" xml:space="preserve" style="fill-rule:evenodd;clip-rule:evenodd;stroke-linejoin:round;stroke-miterlimit:2;">
    <g transform="matrix(1,0,0,1,-1346.07,-220)">
        <g id="icon.svg" transform="matrix(1,0,0,1,1846.07,720)">
            <g transform="matrix(1,0,0,1,-500,-500)">
                <path d="M961.62,293.9L961.62,706.1C961.62,847.125 847.125,961.62 706.1,961.62L293.9,961.62C152.875,961.62 38.38,847.125 38.38,706.1L38.38,293.9C38.38,152.875 152.875,38.38 293.9,38.38L706.1,38.38C847.125,38.38 961.62,152.875 961.62,293.9Z" style="fill:url(#_Radial1);"/>
                <g transform="matrix(0.933656,0,0,0.933656,-648.579,-339.538)">
                    <rect x="930.195" y="602.503" width="600" height="593.382" style="fill:none;"/>
                    <clipPath id="_clip2">
                        <rect x="930.195" y="602.503" width="600" height="593.382"/>
                    </clipPath>
                    <g clip-path="url(#_clip2)">
                        <g transform="matrix(0.613178,0,0,0.656932,439.385,206.699)">
                            <path d="M1189.1,1387.17L889.359,1387.17C867.757,1387.17 850.219,1370.8 850.219,1350.63C850.219,1330.47 867.757,1314.1 889.359,1314.1L1690.03,1314.1C1711.63,1314.1 1729.17,1330.47 1729.17,1350.63C1729.17,1370.8 1711.63,1387.17 1690.03,1387.17L1390.29,1387.17C1367.33,1358.66 1330.8,1340.21 1289.69,1340.21C1248.58,1340.21 1212.05,1358.66 1189.1,1387.17ZM1412.62,1432.7L1649.19,1432.7L1649.19,1450.96C1649.19,1481.21 1622.88,1505.77 1590.48,1505.77L1415.46,1505.77L1415.46,1457.6C1415.46,1449.06 1414.48,1440.72 1412.62,1432.7ZM1163.93,1505.77L988.906,1505.77C956.503,1505.77 930.195,1481.21 930.195,1450.96L930.195,1432.88C930.195,1432.78 930.283,1432.7 930.391,1432.7L1166.77,1432.7C1164.91,1440.72 1163.93,1449.06 1163.93,1457.6L1163.93,1505.77ZM1649.19,657.304L1649.19,675.57L930.195,675.57L930.195,657.304C930.195,627.058 956.503,602.503 988.906,602.503L1590.48,602.503C1622.88,602.503 1649.19,627.058 1649.19,657.304ZM1729.17,757.636C1729.17,777.799 1711.63,794.169 1690.03,794.169L889.359,794.169C867.757,794.169 850.219,777.799 850.219,757.636C850.219,737.473 867.757,721.103 889.359,721.103L1690.03,721.103C1711.63,721.103 1729.17,737.473 1729.17,757.636ZM1753.43,876.235C1753.43,896.399 1735.89,912.769 1714.29,912.769L865.096,912.769C843.494,912.769 825.956,896.399 825.956,876.235C825.956,856.072 843.494,839.702 865.096,839.702L1714.29,839.702C1735.89,839.702 1753.43,856.072 1753.43,876.235ZM1778.95,994.835C1778.95,1015 1761.41,1031.37 1739.81,1031.37L839.578,1031.37C817.976,1031.37 800.438,1015 800.438,994.835C800.438,974.671 817.976,958.301 839.578,958.301L1739.81,958.301C1761.41,958.301 1778.95,974.671 1778.95,994.835ZM1778.95,1113.43C1778.95,1133.6 1761.41,1149.97 1739.81,1149.97L839.578,1149.97C817.976,1149.97 800.438,1133.6 800.438,1113.43C800.438,1093.27 817.976,1076.9 839.578,1076.9L1739.81,1076.9C1761.41,1076.9 1778.95,1093.27 1778.95,1113.43ZM1753.43,1232.03C1753.43,1252.2 1735.89,1268.57 1714.29,1268.57L865.096,1268.57C843.494,1268.57 825.956,1252.2 825.956,1232.03C825.956,1211.87 843.494,1195.5 865.096,1195.5L1714.29,1195.5C1735.89,1195.5 1753.43,1211.87 1753.43,1232.03Z" style="fill:white;"/>
                        </g>
                        <g transform="matrix(1.32393,0,0,1.21301,-448.301,-168.893)">
                            <path d="M1305.43,1098.68L1305.43,1237.12C1305.43,1259.78 1288.58,1278.18 1267.81,1278.18C1247.05,1278.18 1230.19,1259.78 1230.19,1237.12L1230.19,1098.68C1230.19,1076.02 1247.05,1057.62 1267.81,1057.62C1288.58,1057.62 1305.43,1076.02 1305.43,1098.68Z" style="fill:white;"/>
                        </g>
                    </g>
                </g>
            </g>
        </g>
    </g>
    <defs>
        <radialGradient id="_Radial1" cx="0" cy="0" r="1" gradientUnits="userSpaceOnUse" gradientTransform="matrix(1225.76,0,0,1225.76,970.38,921.11)"><stop offset="0" style="stop-color:rgb(189,150,100);stop-opacity:1"/><stop offset="0.03" style="stop-color:rgb(189,150,100);stop-opacity:1"/><stop offset="0.12" style="stop-color:rgb(149,131,106);stop-opacity:1"/><stop offset="0.23" style="stop-color:rgb(108,111,113);stop-opacity:1"/><stop offset="0.31" style="stop-color:rgb(82,99,117);stop-opacity:1"/><stop offset="0.36" style="stop-color:rgb(73,95,119);stop-opacity:1"/><stop offset="0.42" style="stop-color:rgb(63,82,103);stop-opacity:1"/><stop offset="0.54" style="stop-color:rgb(39,50,63);stop-opacity:1"/><stop offset="0.61" style="stop-color:rgb(23,29,37);stop-opacity:1"/><stop offset="1" style="stop-color:rgb(23,29,37);stop-opacity:1"/></radialGradient>
    </defs>
</svg>
